PathFileType	4	(X/Y/Z)	Walk9.trc
DataRate	CameraRate	NumFrames	NumMarkers	Units	OrigDataRate	OrigDataStartFrame	OrigNumFrames
200.000000	200.000000	6	61	mm	200.000000	469	503
Frame#	Times		LFHD		RFHD		CLAV		LASI		RASI		RACR1		RUA1		RFA1		RWRR		RCAR		LACR1		LUA1		LWRU		RTH3		RTB4		LTH1		LTH3		LTH4		LTB1		LTB2		LTB4		LLFC		RTB1		LCAR		LFA1		RTB3		STRN		RMFC		RMT5		RToe		RLFC		LTH2		RTH2		RMT1		LBHD		LTB3		RTB2		LWRR		LElbow		RMMAL		RTH4		RWRU		RLMAL		RCAL		LPSI		RElbow		RTH1		RBHD		T10		RPSI		RBack		LMFC		C7		RElbowM		LElbowM		LLMAL		LCAL		LMT5		LToe		LMT1		LMMAL
			X1	Y1	Z1	X2	Y2	Z2	X3	Y3	Z3	X4	Y4	Z4	X5	Y5	Z5	X6	Y6	Z6	X7	Y7	Z7	X8	Y8	Z8	X9	Y9	Z9	X10	Y10	Z10	X11	Y11	Z11	X12	Y12	Z12	X13	Y13	Z13	X14	Y14	Z14	X15	Y15	Z15	X16	Y16	Z16	X17	Y17	Z17	X18	Y18	Z18	X19	Y19	Z19	X20	Y20	Z20	X21	Y21	Z21	X22	Y22	Z22	X23	Y23	Z23	X24	Y24	Z24	X25	Y25	Z25	X26	Y26	Z26	X27	Y27	Z27	X28	Y28	Z28	X29	Y29	Z29	X30	Y30	Z30	X31	Y31	Z31	X32	Y32	Z32	X33	Y33	Z33	X34	Y34	Z34	X35	Y35	Z35	X36	Y36	Z36	X37	Y37	Z37	X38	Y38	Z38	X39	Y39	Z39	X40	Y40	Z40	X41	Y41	Z41	X42	Y42	Z42	X43	Y43	Z43	X44	Y44	Z44	X45	Y45	Z45	X46	Y46	Z46	X47	Y47	Z47	X48	Y48	Z48	X49	Y49	Z49	X50	Y50	Z50	X51	Y51	Z51	X52	Y52	Z52	X53	Y53	Z53	X54	Y54	Z54	X55	Y55	Z55	X56	Y56	Z56	X57	Y57	Z57	X58	Y58	Z58	X59	Y59	Z59	X60	Y60	Z60	X61	Y61	Z61

469	2.345	1241.2	1596.5	-91.862	1233.4	1600.4	7.4384	1197.2	1321.7	-38.453	1183.9	912.59	-136.09	1180.6	927.58	110.79	1116.3	1356.7	124.77	1100.6	1190.3	185.36	1139.1	909.74	259.62	1212	807.19	233.22	1213.6	741.7	284.37	1130.9	1364.7	-195.97	1139.6	1193.8	-264.7	1325.5	845.82	-315.89	1241.3	609.74	156.26	1237.7	290.24	99.258	1120.9	745.89	-197.53	1094.5	579.87	-163.89	1106.1	661.4	-181.9	1084.7	339.41	-68.422	1048.3	254.1	-120.21	1060.4	256.88	-60.235	1066	439.75	-138.84	1282.4	364.77	105.69	1330	777.84	-355.81	1228.1	923.15	-329.58	1193.7	216.92	90.118	1221.9	1189.4	-29.25	1293.4	470.33	5.2853	1170.8	60.201	115.74	1256.7	46.844	78.898	1297.9	476.48	133.49	1161.5	660.19	-157.26	1254.7	714.96	156.75	1213.3	62.416	40.413	1100.5	1530.9	-122.92	1041.5	175.16	-50.827	1194.8	313.8	136.05	1265.1	811.41	-321.74	1148.2	1038.2	-300.49	1121.8	152.41	22.328	1204.9	685.27	172.24	1155.7	790.61	268.73	1094.5	142.86	101.06	1041	136.27	53.295	1008.1	972.15	-65.74	1080.3	1027	227.29	1168.2	761.93	190.41	1091.6	1543	22.388	1014.4	1211.1	-35.952	1009.3	965.98	34.613	1006.4	1298	25.71	1033.4	439.26	-8.6131	1087	1423.7	-45.009	1060.2	1017.3	150.47	1138.7	1011	-228.88	972.74	70.565	-89.448	914.78	46.368	-47.928	1076.2	23.977	-99.707	1165.1	26.089	-44.307	1107.7	30.794	-16.861	986.42	91.448	-10.001
470	2.35	1248.2	1596	-91.731	1240.3	1599.8	7.5632	1204.2	1321.1	-38.562	1190.4	911.92	-136.36	1187.9	927.02	110.65	1123.1	1356.1	124.64	1106.6	1189.8	185.32	1143.7	909.16	260.23	1216.6	806.38	234.64	1217.3	740.91	285.81	1138.1	1364.2	-196.11	1147.7	1193.4	-265.09	1339.4	849.34	-315.07	1250.2	610.17	156.16	1253.4	289.53	99.065	1126	745.56	-197.56	1098	579.82	-163.88	1110.5	661.18	-181.92	1086.3	339.44	-68.598	1049.3	254.33	-120.32	1061.6	257.06	-60.359	1068	439.94	-139.01	1295.5	365.47	105.51	1345.7	781.35	-354.71	1240.5	924.46	-329.76	1211.8	214.82	89.884	1228.8	1188.7	-29.533	1303.3	471.49	5.2683	1194.2	57.763	115.73	1280.4	47.352	79.045	1308	477.48	133.22	1165.7	659.43	-157.25	1262.8	715.46	157.22	1236.7	61.375	40.497	1107.6	1530.4	-123.01	1042.3	175.42	-50.923	1209.8	311.61	135.99	1279.8	813.51	-321.54	1157.9	1038.1	-301.19	1142.2	147.98	22.14	1213.2	685.38	172.35	1159.7	789.91	269.42	1115.1	137.51	100.89	1061.9	129.14	52.951	1014.8	971.63	-65.27	1085.6	1026.6	227.35	1175.9	761.71	190.78	1098.6	1542.3	22.319	1021.3	1210.6	-36.087	1016.3	965.46	35.06	1013.4	1297.5	25.413	1035.7	439.63	-8.6392	1094.1	1423.2	-45.191	1066.1	1016.7	150.5	1148.4	1010.5	-229.77	972.9	71.15	-89.356	914.9	47.186	-47.763	1076.2	23.994	-99.619	1165.1	26.016	-44.353	1107.8	30.757	-16.864	986.72	92.003	-9.9099
471	2.355	1255.3	1595.5	-91.602	1247.3	1599.2	7.6843	1211.2	1320.4	-38.669	1196.8	911.22	-136.64	1195.2	926.39	110.5	1130.1	1355.4	124.52	1112.6	1189.3	185.28	1148.5	908.54	260.84	1221.1	805.53	236.05	1221	740.08	287.24	1145.3	1363.6	-196.23	1155.7	1193	-265.46	1353.1	852.86	-314.19	1258.9	610.46	156.07	1269	288.81	98.848	1131	745.21	-197.62	1101.6	579.76	-163.88	1114.8	660.95	-181.98	1088	339.45	-68.778	1050.5	254.55	-120.44	1062.8	257.23	-60.488	1070.1	440.13	-139.18	1308.5	366.11	105.29	1361.2	784.91	-353.54	1252.9	925.77	-329.89	1230	212.78	89.641	1235.8	1187.9	-29.81	1313	472.48	5.2558	1217.7	55.509	115.71	1304.2	48.091	79.14	1317.8	478.31	132.94	1169.9	658.66	-157.3	1270.8	715.8	157.67	1260.2	60.55	40.549	1114.8	1529.8	-123.11	1043.1	175.68	-51.03	1224.9	309.34	135.95	1294.4	815.65	-321.29	1167.5	1037.9	-301.87	1162.8	143.65	21.976	1221.4	685.37	172.47	1163.8	789.17	270.11	1135.9	132.25	100.75	1083.1	122.1	52.657	1021.5	971.06	-64.751	1091	1026.1	227.43	1183.6	761.39	191.16	1105.6	1541.5	22.242	1028.3	1210.1	-36.189	1023.4	964.88	35.552	1020.4	1297	25.146	1038.1	439.99	-8.6692	1101.2	1422.6	-45.367	1071.9	1016.1	150.54	1158	1009.9	-230.65	973.09	71.755	-89.283	915.03	48.039	-47.62	1076.2	24.009	-99.534	1165.2	25.932	-44.396	1107.8	30.717	-16.868	987.05	92.571	-9.8385
472	2.36	1262.4	1594.9	-91.475	1254.3	1598.6	7.8019	1218.3	1319.7	-38.772	1203.2	910.48	-136.94	1202.6	925.69	110.35	1137.1	1354.7	124.42	1118.7	1188.7	185.25	1153.3	907.89	261.46	1225.7	804.66	237.46	1224.8	739.23	288.66	1152.6	1362.9	-196.35	1163.8	1192.6	-265.81	1366.7	856.4	-313.24	1267.5	610.61	155.97	1284.5	288.11	98.612	1136.1	744.84	-197.71	1105.1	579.68	-163.89	1119.1	660.72	-182.07	1089.8	339.44	-68.961	1051.7	254.77	-120.57	1064.1	257.39	-60.623	1072.3	440.31	-139.36	1321.4	366.69	105.04	1376.6	788.54	-352.31	1265.1	927.08	-329.96	1248.2	210.82	89.393	1242.7	1187	-30.079	1322.4	473.26	5.2478	1241.3	53.469	115.67	1328.1	49.082	79.181	1327.5	478.98	132.65	1174.1	657.9	-157.41	1278.8	716	158.09	1283.7	59.964	40.569	1122	1529.1	-123.2	1044	175.94	-51.146	1240	307.01	135.93	1308.8	817.84	-321	1177.1	1037.6	-302.52	1183.4	139.45	21.836	1229.5	685.24	172.59	1168	788.4	270.81	1157	127.09	100.65	1104.6	115.17	52.414	1028.2	970.43	-64.182	1096.4	1025.6	227.51	1191.2	760.97	191.54	1112.6	1540.7	22.158	1035.3	1209.6	-36.258	1030.4	964.24	36.087	1027.5	1296.4	24.909	1040.6	440.33	-8.7024	1108.4	1422	-45.536	1077.8	1015.4	150.58	1167.6	1009.3	-231.51	973.29	72.378	-89.232	915.17	48.929	-47.501	1076.2	24.023	-99.452	1165.3	25.837	-44.434	1107.9	30.677	-16.873	987.4	93.153	-9.7897
473	2.365	1269.4	1594.3	-91.351	1261.3	1597.9	7.9163	1225.4	1318.9	-38.872	1209.6	909.71	-137.25	1210	924.92	110.2	1144.2	1353.9	124.32	1124.9	1188.1	185.23	1158.1	907.21	262.07	1230.4	803.75	238.86	1228.7	738.36	290.07	1160	1362.2	-196.46	1171.9	1192.1	-266.13	1380.1	859.93	-312.21	1275.9	610.63	155.88	1300	287.44	98.363	1141.1	744.46	-197.82	1108.7	579.58	-163.91	1123.5	660.48	-182.2	1091.6	339.41	-69.146	1052.9	254.99	-120.71	1065.4	257.54	-60.761	1074.6	440.47	-139.54	1334	367.22	104.78	1391.8	792.22	-351.01	1277.3	928.41	-329.97	1266.4	208.97	89.145	1249.7	1186	-30.338	1331.5	473.85	5.2437	1265.1	51.673	115.61	1351.9	50.347	79.169	1337	479.48	132.37	1178.4	657.16	-157.58	1286.6	716.04	158.49	1307.2	59.642	40.555	1129.2	1528.3	-123.3	1044.9	176.19	-51.27	1255.1	304.64	135.94	1323.1	820.09	-320.65	1186.6	1037.3	-303.15	1204.3	135.4	21.721	1237.6	685	172.73	1172.2	787.61	271.5	1178.2	122.08	100.57	1126.3	108.38	52.221	1034.9	969.76	-63.561	1102	1025.1	227.6	1198.8	760.46	191.93	1119.7	1539.8	22.068	1042.3	1209	-36.293	1037.6	963.55	36.666	1034.6	1295.8	24.702	1043.3	440.65	-8.7382	1115.7	1421.4	-45.699	1083.8	1014.7	150.61	1177.1	1008.6	-232.36	973.51	73.022	-89.202	915.32	49.858	-47.407	1076.2	24.035	-99.374	1165.3	25.733	-44.469	1107.9	30.637	-16.88	987.77	93.749	-9.7654
474	2.37	1276.5	1593.7	-91.229	1268.3	1597.1	8.0282	1232.6	1318	-38.968	1215.9	908.92	-137.56	1217.4	924.09	110.05	1151.4	1353.1	124.24	1131.1	1187.4	185.21	1163	906.52	262.69	1235.1	802.82	240.25	1232.6	737.46	291.46	1167.4	1361.5	-196.56	1179.9	1191.5	-266.43	1393.3	863.46	-311.13	1284.2	610.51	155.79	1315.4	286.82	98.109	1146	744.07	-197.95	1112.3	579.47	-163.94	1127.9	660.25	-182.35	1093.6	339.36	-69.331	1054.3	255.2	-120.86	1066.8	257.68	-60.903	1077	440.62	-139.72	1346.6	367.71	104.5	1406.9	795.95	-349.67	1289.3	929.75	-329.93	1284.7	207.24	88.904	1256.7	1185	-30.584	1340.3	474.22	5.2428	1289	50.148	115.54	1375.7	51.905	79.102	1346.3	479.83	132.09	1182.6	656.42	-157.82	1294.4	715.94	158.87	1330.8	59.603	40.506	1136.4	1527.5	-123.4	1045.8	176.45	-51.402	1270.2	302.26	135.96	1337.2	822.38	-320.24	1196.2	1036.9	-303.74	1225.2	131.55	21.63	1245.5	684.64	172.88	1176.4	786.8	272.2	1199.7	117.25	100.53	1148.4	101.77	52.078	1041.6	969.06	-62.89	1107.5	1024.6	227.71	1206.4	759.86	192.33	1126.7	1538.9	21.974	1049.4	1208.4	-36.292	1044.7	962.82	37.289	1041.8	1295.2	24.523	1046.2	440.96	-8.7761	1123	1420.7	-45.853	1089.8	1013.9	150.64	1186.6	1007.9	-233.17	973.76	73.687	-89.193	915.48	50.828	-47.336	1076.2	24.047	-99.3	1165.3	25.619	-44.5	1108	30.597	-16.889	988.18	94.36	-9.7663
